# xmcd
#
# Track frame offsets:
#	150
#	18590
#	37930
#	53982
#	74632
#	91140
#	103477
#	119057
#	128035
#	146570
#	158102
#	178067
#	191037
#	204482
#	220232
#
# Disc length: 3112 seconds
#
# Revision: 1
# Processed by: cddbd v1.4PL0 Copyright (c) Steve Scherf et al.
# Submitted via: CDmax 1.8
#
DISCID=e70c260f
DTITLE=Bobby Bare - The Gambler
DYEAR=1900
DGENRE=Country
TTITLE0=Numbers
TTITLE1=Tequila Sheila
TTITLE2=The Gambler
TTITLE3=Let Him Roll
TTITLE4=Goin' Up's Easy, Comin' Down's Hard
TTITLE5=Praise The Lord And Send Me The Money
TTITLE6=Goodnight Irene
TTITLE7=I've Never Gone To Bed With An Ugly Woman
TTITLE8=The Jogger
TTITLE9=Food Blues
TTITLE10=Desperados Waiting For A Train
TTITLE11=Three Legged Man
TTITLE12=Finger On The Button
TTITLE13=The Last Time
TTITLE14=Greasy Grit Gravy
EXTD=
EXTT0=
EXTT1=
EXTT2=
EXTT3=
EXTT4=
EXTT5=
EXTT6=
EXTT7=
EXTT8=
EXTT9=
EXTT10=
EXTT11=
EXTT12=
EXTT13=
EXTT14=
PLAYORDER=
